# xmcd CD database file
#
# Track frame offsets:
#	150
#	15502
#	30276
#	42348
#	62841
#	75771
#	94626
#	122309
#	135884
#	150301
#	170304
#	183156
#
# Disc length: 2648 seconds
#
# Revision: 4
# Processed by: cddbd v1.5.2PL0 Copyright (c) Steve Scherf et al.
# Submitted via: CDex 1.51
#
DISCID=700a560c
DTITLE=Scott Walker - Scott 2
DYEAR=1968
DGENRE=General Pop
TTITLE0=Jackie
TTITLE1=Best Of Both Worlds
TTITLE2=Black Sheep Boy
TTITLE3=The Amorous Humphrey Plugg
TTITLE4=Next
TTITLE5=The Girls From The Streets
TTITLE6=Plastic Palace People
TTITLE7=Wait Until Dark
TTITLE8=The Girls And The Dogs
TTITLE9=Windows Of The World
TTITLE10=The Bridge
TTITLE11=Come Next Spring
EXTD=YEAR: 1968
EXTT0=
EXTT1=
EXTT2=
EXTT3=
EXTT4=
EXTT5=
EXTT6=
EXTT7=
EXTT8=
EXTT9=
EXTT10=
EXTT11=
PLAYORDER=
